<?xml version="1.0" encoding="utf-8"?>
<!-- Generator: Adobe Illustrator 16.0.0, SVG Export Plug-In . SVG Version: 6.00 Build 0)  -->
<!DOCTYPE svg PUBLIC "-//W3C//DTD SVG 1.1//EN" "http://www.w3.org/Graphics/SVG/1.1/DTD/svg11.dtd">
<svg version="1.1" id="Layer_1" xmlns="http://www.w3.org/2000/svg" xmlns:xlink="http://www.w3.org/1999/xlink" x="0px" y="0px"
	 width="438.881px" height="94.019px" viewBox="0 0 438.881 94.019" enable-background="new 0 0 438.881 94.019"
	 xml:space="preserve">
<polygon fill="#231F20" points="217.148,0 203.941,0 203.941,45.13 211.428,45.13 211.428,7.054 225.352,45.13 233.793,45.13 
	247.725,7.054 247.725,45.13 255.492,45.13 255.492,0 242.279,0 229.535,34.677 "/>
<polygon fill="#231F20" points="315.217,45.215 322.908,45.215 322.908,6.137 334.873,6.137 334.873,0 303.326,0 303.326,6.137 
	315.217,6.137 "/>
<path fill="#231F20" d="M73.97,29.966c1.947-0.872,3.343-2.297,4.256-4.372c0.958-2.11,1.438-6.345,1.438-9.852
	c0-3.924-0.44-7.378-1.334-9.597c-0.864-2.159-2.197-3.685-4.087-4.654C72.309,0.51,69.599,0,66.208,0H47.6v45.215h7.692V30.992
	h11.04l6.701,14.224h8.28l-8.035-14.927L73.97,29.966z M71.506,21.678c0,1.46-0.439,2.498-1.328,3.092
	c-0.816,0.531-2.135,0.794-4.047,0.794H55.292V6.137h10.839c1.912,0,3.231,0.263,4.047,0.792c0.889,0.593,1.328,1.637,1.328,3.092
	V21.678z"/>
<path fill="#231F20" d="M369.623,29.966c1.939-0.872,3.338-2.297,4.252-4.372c0.957-2.11,1.445-6.345,1.445-9.852
	c0-3.924-0.445-7.378-1.334-9.597c-0.869-2.159-2.205-3.685-4.096-4.654C367.963,0.51,365.262,0,361.855,0h-18.607v45.215h7.693
	V30.992h11.053l6.695,14.224h8.271l-8.037-14.927L369.623,29.966z M367.154,21.678c0,1.46-0.439,2.498-1.324,3.092
	c-0.818,0.531-2.137,0.794-4.047,0.794h-10.842V6.137h10.842c1.91,0,3.229,0.263,4.047,0.792c0.885,0.593,1.324,1.637,1.324,3.092
	V21.678z"/>
<rect x="389.23" y="0.001" fill="#231F20" width="7.713" height="45.215"/>
<path fill="#231F20" d="M437.807,37.175c-2.922,1.206-7.127,1.071-10.434,1.071c-8.025,0-9.945-4.078-9.945-15.859
	c0-11.302,1.443-15.373,9.652-15.373c3.092,0,8.16-0.191,11.076,1.05V1.002C435.383,0.373,432.254,0,429.449,0
	c-16.59,0-20.076,4.69-20.076,22.457c0,17.762,6.66,22.781,19.807,22.781c3.291,0,6.061-0.324,8.977-1.082v-7.121
	C438.043,37.084,437.924,37.127,437.807,37.175"/>
<path fill="#231F20" d="M118.531,37.175c-2.931,1.206-7.133,1.071-10.431,1.071c-8.029,0-9.948-4.078-9.948-15.859
	c0-11.302,1.447-15.373,9.656-15.373c3.084,0,8.155-0.191,11.072,1.05V1.002C116.109,0.373,112.969,0,110.177,0
	C93.58,0,90.094,4.69,90.094,22.458c0,17.762,6.661,22.781,19.812,22.781c3.282,0,6.057-0.324,8.974-1.082v-7.121
	C118.76,37.084,118.646,37.127,118.531,37.175"/>
<polygon fill="#231F20" points="137.93,0 130.233,0 130.233,45.23 137.93,45.23 137.93,25.564 156.917,25.564 156.917,45.23 
	164.617,45.23 164.617,0 156.917,0 156.917,20.039 137.93,20.039 "/>
<rect x="179.885" fill="#231F20" width="7.701" height="45.229"/>
<path fill="#231F20" d="M25.717,0H12.866L0,44.959h7.591l4.302-13.969l15.251,0.063L31,44.959h7.591L25.717,0z M13.25,25.533
	l5.192-18.461h1.78l5.325,18.556L13.25,25.533z"/>
<polygon fill="#231F20" points="295.268,6.25 295.268,0.108 267.938,0.108 267.938,45.238 295.469,45.238 295.469,39.119 
	275.625,39.119 275.625,25.473 292.633,25.473 292.633,19.875 275.625,19.875 275.625,6.23 "/>
<polygon fill="#D0202A" points="219.813,76.884 219.813,71.52 222.303,71.52 222.303,76.884 227.682,76.884 227.682,79.387 
	222.303,79.387 222.303,84.764 219.813,84.764 219.813,79.387 214.436,79.387 214.436,76.884 "/>
<path fill="#231F20" d="M1.867,73.958c1.487-1.521,3.656-2.229,5.759-2.229c4.271,0,6.066,2.04,6.066,6.126v6.226
	c0,0.833,0.094,1.765,0.219,2.506h-2.32c-0.155-0.651-0.155-1.551-0.155-2.168h-0.061c-0.962,1.487-2.575,2.537-4.767,2.537
	c-2.945,0-5.389-1.48-5.389-4.3c0-4.801,5.573-5.074,9.129-5.074h0.935v-0.443c0-2.1-1.337-3.181-3.594-3.181
	c-1.552,0-3.157,0.523-4.303,1.577L1.867,73.958z M8.862,79.623c-3.062,0-5.042,0.836-5.042,2.785c0,1.827,1.364,2.506,3.19,2.506
	c2.782,0,4.208-2.015,4.273-4.362v-0.929H8.862z"/>
<path fill="#231F20" d="M24.31,75.535c0-1.332-0.123-2.479-0.123-3.438h2.29c0,0.772,0.063,1.581,0.063,2.384h0.062
	c0.655-1.425,2.447-2.752,4.83-2.752c0.312,0,0.65,0.031,0.99,0.152l-0.155,2.444c-0.401-0.123-0.863-0.183-1.298-0.183
	c-2.941,0-4.24,2.072-4.24,5.387v7.057H24.31V75.535z"/>
<path fill="#231F20" d="M51.152,75.72c-1.021-1.239-2.197-1.763-3.65-1.763c-3.254,0-4.896,2.415-4.896,5.384
	c0,2.974,1.949,5.388,4.896,5.388c1.578,0,2.782-0.556,3.681-1.796l1.797,1.702c-1.394,1.613-3.373,2.321-5.478,2.321
	c-4.493,0-7.496-3.155-7.496-7.615c0-4.397,3.038-7.612,7.496-7.612c2.133,0,4.116,0.708,5.571,2.29L51.152,75.72z"/>
<path fill="#231F20" d="M61.959,63.178h2.412v10.934h0.061c0.649-1.15,2.384-2.383,4.638-2.383c3.811,0,5.516,2.414,5.516,5.912
	v8.945h-2.413v-8.697c0-2.412-1.055-3.932-3.314-3.932c-3.128,0-4.488,2.258-4.488,5.572v7.057h-2.412V63.178z"/>
<path fill="#231F20" d="M86.782,64.664c0.992,0,1.765,0.805,1.765,1.77c0,1.018-0.745,1.768-1.765,1.768
	c-1.027,0-1.767-0.75-1.767-1.768C85.015,65.468,85.792,64.664,86.782,64.664 M85.569,72.098h2.418v14.488h-2.418V72.098z"/>
<path fill="#231F20" d="M106.902,74.143h-4.27v7.248c0,1.849,0.033,3.338,2.167,3.338c0.71,0,1.486-0.156,2.138-0.494l0.093,2.197
	c-0.838,0.371-1.923,0.524-2.819,0.524c-3.437,0-3.994-1.859-3.994-4.858v-7.955h-3.155v-2.045h3.155v-4.114h2.415v4.114h4.27
	V74.143z"/>
<path fill="#231F20" d="M129.002,83.957c-1.704,2.199-3.745,3-6.437,3c-4.552,0-7.34-3.401-7.34-7.616c0-4.49,3.156-7.61,7.435-7.61
	c4.086,0,6.866,2.782,6.866,7.576v0.78h-11.703c0.19,2.505,2.104,4.644,4.742,4.644c2.074,0,3.464-0.744,4.611-2.198L129.002,83.957
	z M126.932,78.042c-0.094-2.444-1.706-4.085-4.366-4.085c-2.665,0-4.429,1.641-4.742,4.085H126.932z"/>
<path fill="#231F20" d="M149.775,75.72c-1.021-1.239-2.197-1.763-3.653-1.763c-3.252,0-4.889,2.415-4.889,5.384
	c0,2.974,1.949,5.388,4.889,5.388c1.575,0,2.79-0.556,3.685-1.796l1.797,1.702c-1.397,1.613-3.378,2.321-5.481,2.321
	c-4.491,0-7.492-3.155-7.492-7.615c0-4.397,3.035-7.612,7.492-7.612c2.135,0,4.114,0.708,5.574,2.29L149.775,75.72z"/>
<path fill="#231F20" d="M168.5,74.143h-4.271v7.248c0,1.849,0.032,3.338,2.166,3.338c0.713,0,1.488-0.156,2.14-0.494l0.093,2.197
	c-0.835,0.371-1.92,0.524-2.816,0.524c-3.438,0-3.998-1.859-3.998-4.858v-7.955h-3.158v-2.045h3.158v-4.114h2.416v4.114h4.271
	V74.143z"/>
<path fill="#231F20" d="M177.973,82.778c0.961,1.179,2.014,1.951,3.713,1.951c1.518,0,3.189-0.648,3.189-2.229
	c0-1.55-1.551-1.948-3.094-2.289c-2.756-0.614-5.109-1.214-5.109-4.211c0-2.819,2.725-4.271,5.42-4.271
	c2.043,0,3.934,0.771,4.922,2.632l-2.01,1.33c-0.619-1.024-1.648-1.733-3.066-1.733c-1.332,0-2.85,0.649-2.85,2.012
	c0,1.205,1.73,1.736,3.652,2.104c2.57,0.49,4.732,1.428,4.732,4.334c0,3.281-2.904,4.548-5.787,4.548
	c-2.441,0-4.211-0.647-5.63-2.691L177.973,82.778z"/>
<path fill="#231F20" d="M269.176,83.957c-1.707,2.199-3.744,3-6.438,3c-4.553,0-7.342-3.401-7.342-7.616
	c0-4.49,3.16-7.61,7.432-7.61c4.09,0,6.869,2.782,6.869,7.576v0.78h-11.701c0.189,2.505,2.102,4.644,4.742,4.644
	c2.072,0,3.463-0.744,4.611-2.198L269.176,83.957z M267.1,78.042c-0.088-2.444-1.701-4.085-4.361-4.085
	c-2.668,0-4.428,1.641-4.742,4.085H267.1z"/>
<path fill="#231F20" d="M279.639,75.535c0-1.332-0.123-2.479-0.123-3.438h2.289c0,0.772,0.057,1.581,0.057,2.384h0.068
	c0.648-1.425,2.441-2.752,4.828-2.752c3.811,0,5.51,2.414,5.51,5.912v8.945h-2.414V77.89c0-2.413-1.053-3.933-3.311-3.933
	c-3.127,0-4.494,2.258-4.494,5.572v7.057h-2.41V75.535z"/>
<path fill="#231F20" d="M317.502,85.937c0,5.229-2.822,8.082-7.895,8.082c-2.822,0-5.084-0.742-7.129-2.761l1.738-1.982
	c1.52,1.644,3.156,2.517,5.391,2.517c4.334,0,5.473-2.791,5.473-5.855v-1.856h-0.057c-1.148,1.856-3.188,2.694-5.107,2.694
	c-4.555,0-7.713-3.156-7.713-7.435c0-4.733,3.098-7.611,7.713-7.611c1.947,0,4.145,0.927,5.107,2.845h0.057v-2.477h2.422V85.937z
	 M309.916,84.541c3.307,0,5.164-2.473,5.164-5.265c0-3.123-2.102-5.318-5.164-5.318c-3.039,0-5.115,2.351-5.115,5.383
	C304.801,82.284,307.096,84.541,309.916,84.541"/>
<path fill="#231F20" d="M329.566,64.664c0.994,0,1.766,0.805,1.766,1.77c0,1.018-0.742,1.768-1.766,1.768
	c-1.021,0-1.758-0.75-1.758-1.768C327.809,65.468,328.58,64.664,329.566,64.664 M328.363,72.098h2.412v14.488h-2.412V72.098z"/>
<path fill="#231F20" d="M341.771,75.535c0-1.332-0.127-2.479-0.127-3.438h2.291c0,0.772,0.064,1.581,0.064,2.384h0.061
	c0.648-1.425,2.441-2.752,4.83-2.752c3.807,0,5.51,2.414,5.51,5.912v8.945h-2.414V77.89c0-2.413-1.057-3.933-3.318-3.933
	c-3.127,0-4.482,2.258-4.482,5.572v7.057h-2.414V75.535z"/>
<path fill="#231F20" d="M378.115,83.957c-1.701,2.199-3.752,3-6.443,3c-4.553,0-7.334-3.401-7.334-7.616
	c0-4.49,3.152-7.61,7.426-7.61c4.088,0,6.871,2.782,6.871,7.576v0.78h-11.699c0.184,2.505,2.105,4.644,4.736,4.644
	c2.074,0,3.465-0.744,4.609-2.198L378.115,83.957z M376.037,78.042c-0.094-2.444-1.703-4.085-4.365-4.085
	c-2.664,0-4.43,1.641-4.736,4.085H376.037z"/>
<path fill="#231F20" d="M401.512,83.957c-1.705,2.199-3.746,3-6.439,3c-4.543,0-7.338-3.401-7.338-7.616
	c0-4.49,3.16-7.61,7.432-7.61c4.084,0,6.873,2.782,6.873,7.576v0.78H390.34c0.189,2.505,2.102,4.644,4.732,4.644
	c2.072,0,3.471-0.744,4.611-2.198L401.512,83.957z M399.439,78.042c-0.098-2.444-1.707-4.085-4.367-4.085s-4.422,1.641-4.732,4.085
	H399.439z"/>
<path fill="#231F20" d="M411.979,75.535c0-1.332-0.127-2.479-0.127-3.438h2.289c0,0.772,0.066,1.581,0.066,2.384h0.061
	c0.648-1.425,2.449-2.752,4.834-2.752c0.309,0,0.643,0.031,0.986,0.152l-0.154,2.444c-0.398-0.123-0.867-0.183-1.299-0.183
	c-2.945,0-4.244,2.072-4.244,5.387v7.057h-2.412V75.535z"/>
<path fill="#231F20" d="M429.377,82.778c0.957,1.179,2.01,1.951,3.715,1.951c1.518,0,3.186-0.648,3.186-2.229
	c0-1.55-1.547-1.948-3.098-2.289c-2.752-0.614-5.111-1.214-5.111-4.211c0-2.819,2.73-4.271,5.424-4.271
	c2.043,0,3.936,0.771,4.926,2.632l-2.02,1.33c-0.617-1.024-1.641-1.733-3.059-1.733c-1.336,0-2.852,0.649-2.852,2.012
	c0,1.205,1.73,1.736,3.654,2.104c2.568,0.49,4.738,1.428,4.738,4.334c0,3.281-2.916,4.548-5.789,4.548
	c-2.449,0-4.213-0.647-5.637-2.691L429.377,82.778z"/>
</svg>
